/* XPM */
static char *efc280efa34344648bc45da967423c8220Yce8pj6py9XJCF[] = {
/* columns rows colors chars-per-pixel */
"50 50 162 2 ",
"   c None",
".  c #0B1229",
"X  c #10162C",
"o  c #14182E",
"O  c #1C1F32",
"+  c #1F2033",
"@  c #232336",
"#  c #282638",
"$  c #2D2B3B",
"%  c #302D3D",
"&  c #36313F",
"*  c #38313F",
"=  c #3A3441",
"-  c #3F3844",
";  c #403744",
":  c #443B46",
">  c #473E48",
",  c #493F49",
"<  c #4C414A",
"1  c #55454D",
"2  c #55484F",
"3  c #564A50",
"4  c #5D4C52",
"5  c #634F53",
"6  c #645356",
"7  c #695456",
"8  c #665658",
"9  c #695859",
"0  c #725A5B",
"q  c #7E615F",
"w  c #766261",
"e  c #7D6461",
"r  c #7F6966",
"t  c #E53E33",
"y  c #E54136",
"u  c #E64439",
"i  c #E8473B",
"p  c #E6493D",
"a  c #E84B3E",
"s  c #87625F",
"d  c #826965",
"f  c #8D6963",
"g  c #866D69",
"h  c #8D6F68",
"j  c #9F6F67",
"k  c #8C726B",
"l  c #9C756C",
"z  c #8F7872",
"x  c #897470",
"c  c #9D7C72",
"v  c #AB7A6E",
"b  c #B2766A",
"n  c #B97C6F",
"m  c #A37F73",
"M  c #E64D41",
"N  c #E94E40",
"B  c #E65246",
"V  c #EB5445",
"C  c #EC5748",
"Z  c #E7584C",
"A  c #EC5B4C",
"S  c #E75448",
"D  c #E75D51",
"F  c #EC6455",
"G  c #E8675A",
"H  c #EC6C5B",
"J  c #F16654",
"K  c #F06856",
"L  c #F16B59",
"P  c #C77D6E",
"I  c #D57C6B",
"U  c #E67562",
"Y  c #ED7464",
"T  c #EC7B66",
"R  c #E07C69",
"E  c #EB7C6D",
"W  c #F47662",
"Q  c #F67A64",
"!  c #F67E68",
"~  c #9E8076",
"^  c #A68276",
"/  c #A78478",
"(  c #AE8779",
")  c #AE897B",
"_  c #B58677",
"`  c #B18B7C",
"'  c #CF8876",
"]  c #C38A78",
"[  c #D88371",
"{  c #F3836F",
"}  c #E68973",
"|  c #EB8778",
" . c #EB8E7E",
".. c #F68670",
"X. c #F18B75",
"o. c #FA8F76",
"O. c #E0927B",
"+. c #FB9077",
"@. c #F7927B",
"#. c #FB997F",
"$. c #FB9379",
"%. c #A18980",
"&. c #AD8F83",
"*. c #B69283",
"=. c #B59D8F",
"-. c #BCA091",
";. c #C29583",
":. c #C89380",
">. c #CD9C87",
",. c #CE9D88",
"<. c #D69680",
"1. c #D69D87",
"2. c #EF9483",
"3. c #E59F86",
"4. c #EE9980",
"5. c #ED9E8D",
"6. c #F59580",
"7. c #F79E83",
"8. c #FB9F85",
"9. c #CCA08C",
"0. c #C5A290",
"q. c #D7AB93",
"w. c #D8B19A",
"e. c #D2B39E",
"r. c #E4A68D",
"t. c #EFA58A",
"y. c #E4A98F",
"u. c #FBA085",
"i. c #F3A68C",
"p. c #FBA389",
"a. c #F4A88D",
"s. c #E4AC92",
"d. c #F5AD93",
"f. c #FCAD91",
"g. c #F1AD9A",
"h. c #E3B196",
"j. c #F3B497",
"k. c #FCB597",
"l. c #FDBD9F",
"z. c #F6B59C",
"x. c #CBB3A0",
"c. c #E6BBA0",
"v. c #F4BCA2",
"b. c #DDC3AD",
"n. c #DAC6B0",
"m. c #EEC0A3",
"M. c #E4C0A8",
"N. c #F3C0AB",
"B. c #FAC5AA",
"V. c #F0C8AC",
"C. c #FBCAAC",
"Z. c #EBCEB4",
"A. c #F6CAB4",
"S. c #F5CEB8",
"D. c #E6D2BA",
"F. c #F5D2B6",
"G. c #FAD2B8",
"H. c #F7D9BF",
"J. c #FBD1B4",
"K. c #EEDBC3",
"L. c #F6D7C0",
"P. c #F4DBC3",
/* pixels */
"                                                                                                    ",
"                                                                                                    ",
"                                                                                                    ",
"                                                                                                    ",
"                                                                                                    ",
"                                    . . . . . . . . . . . . . . . . . . .                           ",
"                                    X X X X X X X X . X X X X X . X X X X                           ",
"                                    O O O O O O O + + + + + + + + + + + +                           ",
"                                  # $ # $ $ $ # % $ $ $ $ $ $ $ $ $ $ $ # #                         ",
"                                  * = ; : : : : > > > > > : < < < : - : - =                         ",
"                                = : 1 4 5 5 7 7 6 7 7 8 7 6 6 6 6 6 6 3 3 < =                       ",
"                              % : 2 7 0 e f f k h k k k k x x k x g r w 9 2 : %                     ",
"                          o # * , 7 0 h c m _ ` ` ) ` ) ) ` ` ` ) / ~ x r 6 < & @ O                 ",
"                        o + % ; 2 0 k ^ *.0.] 0.O.q.] O.9.9.9.9.] 9.` / h 0 1 - % + o               ",
"                        # % = < 7 d ~ *.9.w.h.c.h.h.s.q.y.r.r.y.y.,.] _ l s 5 < * % @               ",
"                      % % - < 6 w z &.0.w.c.m.m.j.j.j.a.a.a.a.a.a.O.O.] ^ s 0 4 < - * $             ",
"                    * : < 3 8 w x %.-.e.M.V.C.B.l.k.f.f.#.#.#.u.#.#.O.[ _ j s 0 5 1 < : *           ",
"                # * > 1 6 0 r z %.=.x.n.Z.F.J.C.l.j.u.#.+.+.+.o...O.} [ ' b j f q 9 8 3 < - #       ",
"          . X O # ; 1 7 q k ~ &.-.x.n.D.K.H.F.C.k.#.$...{ W L { { { T U I P _ b l x w 8 3 - $ + o . ",
"          . X O # ; 2 0 h / *.0.e.n.D.K.P.H.G.B.d.$.{ W L J J J J H H U I [ ' ] _ ^ k q 3 - $ + X . ",
"          . X O $ : 5 s c *.0.w.c.Z.P.P.P.H.A.z.t...{ J J a a A a A F H U O.O.O.] ` ~ r 6 : $ + X . ",
"          . X O $ : 6 s ^ ;.q.h.V.G.L.L.L.F.N.g.2.E H D M a p i N V A L Q X. .r.1.] / g 6 < $ O X . ",
"          . X O $ : 8 g ( 9.h.V.C.J.G.G.A.N.z.5.| U D S p t t t i N C K Q o.7.t.r.9.` h 8 < # O X . ",
"          . X O $ < 6 h ` 9.h.v.B.C.C.v.v.g.5. .E G Z M u t t t t p C J Q +.u.a.t.9.` k 8 < $ O X . ",
"          . X O $ : 7 h ` 1.h.l.v.v.k.d.i.2.| E G D M M t t t t t p C J Q $.u.a.r.>.) k 9 > $ O X . ",
"          . X O $ : 6 h ` 9.s.j.k.f.p.#.X.E U G D S M p u t t t y M C J Q +.u.t.r.9.` x 8 > $ + . . ",
"          . X O $ < 6 h ) >.y.d.f.u.$.{ Y H D D M M p u u t t t i a C J Q +.u.a.r.>.` k 8 < $ + X . ",
"          . X O $ < 6 h ` 9.y.a.p.#...W K D B M M i i u t y t t u a C J Q +.u.a.r.>.` k 6 > $ + X . ",
"          . X O $ < 8 k ` 9.y.a.u.+.{ K J B p y y y y t u y t t i a C L Q +.#.a.r.9.) k 9 : $ O . . ",
"          . X O $ < 8 k ` >.r.a.u.+.Q J a i t t t t y t y y t y y a C K Q +.u.a.r.>.` k 6 < $ + X . ",
"          . X O % > 9 k ` 9.r.a.#.+.W J C u t t t t t t y t t t u a C K Q $.u.a.r.9.` k 9 < $ + X . ",
"          . X O $ < 8 k ` 9.r.a.u.+.W J a i y t t t t y y t t t u a C J Q $.u.a.y.1.) k 6 - $ + . . ",
"          . X O $ < 8 k ) >.r.t.p.o.Q J V a i y y y y u i u i y u a A K Q X.u.t.r.>.( k 6 < $ + X . ",
"          . X O $ - 6 r / ;.1.t.O.X.T L A V a i a a a a a a a a N C A L ! X.#.3.1.*./ r 8 : $ + X . ",
"          . X O $ : 6 r ~ ` ] O.O.} T H F A A C C C C C C C C C C A F U T } [ O.*.` ~ r 6 : $ + X . ",
"          . X O $ : 3 q x ~ _ _ ' [ I U H L J J J J L J J K J J K L H U I [ ' ] _ / k w 4 : $ + . . ",
"          . X O $ - 3 9 q f v v n [ I I T ! Q Q Q Q Q Q Q Q Q Q Q T T R I ' n v l h r 8 3 - # + X . ",
"                $ = < 2 6 9 q f j b P [ } X.@.$.+.+.+.+.+.+.$.+.+.@.} [ P b j s s 9 7 3 < = #       ",
"                    - : < 2 6 0 s j n ' } #.u.#.a.u.#.u.#.u.u.u.#.O.O.' _ j s 0 5 2 < : =           ",
"                      % & - < 4 0 f v ] O.O.a.a.a.a.a.t.a.t.a.a.t.r.O.] v f 0 4 < - & &             ",
"                        + $ = < 6 q l _ ;.1.r.y.y.y.y.r.r.r.r.y.r.1.] _ l s 5 < * $ @               ",
"                        O + $ = 2 9 h ^ ` ` 9.,.,.O.9.9.9.9.9.9.] >.` ^ h 0 1 - $ + o               ",
"                          o + & < 7 e k c ^ ) ` ` ) ) ) ) ` ` ` ) / ~ x r 6 < * @ o                 ",
"                              % < 2 8 q r g k k x x k x x k k k h g r q 9 2 : $                     ",
"                                = < 2 4 6 8 8 8 8 8 6 8 8 8 8 8 8 6 6 3 2 < *                       ",
"                                  = - - < > > > < > : > > > < > > > > : - =                         ",
"                                  $ $ $ $ $ # $ $ $ $ $ $ $ $ $ $ $ $ $ $ #                         ",
"                                    + + + + + + + + + + + + + + + O O O O                           ",
"                                    X . . X X X X X X . X X . X X X . X X                           ",
"                                    . . . . . . . . . . . . . . . . . . .                           "
};
