/* XPM */
static char *_b2a325e9c0c4f8bda90987328092517IMni5Y0moJUJPp4n[] = {
/* columns rows colors chars-per-pixel */
"64 64 190 2 ",
"   c None",
".  c #05091F",
"X  c #0B0F25",
"o  c #060A21",
"O  c #1E0F24",
"+  c #0D1127",
"@  c #0F1328",
"#  c #11152B",
"$  c #15182E",
"%  c #1C152B",
"&  c #171B31",
"*  c #191D33",
"=  c #29152B",
"-  c #2D0F25",
";  c #1C2035",
":  c #1E2239",
">  c #22263B",
",  c #25293F",
"<  c #2E2036",
"1  c #312339",
"2  c #411C33",
"3  c #471229",
"4  c #622138",
"5  c #262A42",
"6  c #2A2E45",
"7  c #2D3146",
"8  c #2E3249",
"9  c #32364B",
"0  c #36394D",
"q  c #383B4E",
"w  c #353A54",
"e  c #3A3E53",
"r  c #3A3E5A",
"t  c #333754",
"y  c #45364D",
"u  c #59344A",
"i  c #7D3B51",
"p  c #3D4054",
"a  c #3D425A",
"s  c #404457",
"d  c #41455C",
"f  c #424660",
"g  c #464A62",
"h  c #4A4E65",
"j  c #4A4F6F",
"k  c #4E5164",
"l  c #4D526C",
"z  c #515466",
"x  c #52556B",
"c  c #56596C",
"v  c #595C6D",
"b  c #5E536A",
"n  c #4D5374",
"m  c #555A72",
"M  c #5A5E73",
"N  c #54597A",
"B  c #525774",
"V  c #75576C",
"C  c #61566C",
"Z  c #5E6072",
"A  c #5D627D",
"S  c #616374",
"D  c #62667C",
"F  c #6B6D7E",
"G  c #656979",
"H  c #6D707F",
"J  c #813046",
"K  c #9B4B5F",
"L  c #945F73",
"P  c #986376",
"I  c #AE6C7E",
"U  c #B16074",
"Y  c #5E6383",
"T  c #616683",
"R  c #656983",
"E  c #696D87",
"W  c #636A8D",
"Q  c #676C89",
"!  c #6F7282",
"~  c #6E738C",
"^  c #71758E",
"/  c #7A7C8C",
"(  c #737788",
")  c #6C7294",
"_  c #727791",
"`  c #757A93",
"'  c #7A7D94",
"]  c #757A9B",
"[  c #7A7F9C",
"{  c #707698",
"}  c #696F91",
"|  c #797FA2",
" . c #757BA1",
".. c #827D93",
"X. c #B77688",
"o. c #C07E90",
"O. c #7E808E",
"+. c #7D819C",
"@. c #7D8295",
"#. c #7D83A5",
"$. c #7E85A9",
"%. c #838694",
"&. c #868896",
"*. c #82859B",
"=. c #86889A",
"-. c #8B8D9D",
";. c #948398",
":. c #8D909F",
">. c #90929F",
",. c #AB8D9E",
"<. c #8286A3",
"1. c #868AA4",
"2. c #898DA6",
"3. c #858AAB",
"4. c #8A8EAC",
"5. c #8E92AC",
"6. c #8F92A7",
"7. c #9294A1",
"8. c #9799A6",
"9. c #9295AC",
"0. c #9599AC",
"q. c #9A9DAA",
"w. c #989AA7",
"e. c #898EB0",
"r. c #8E94B4",
"t. c #9296B5",
"y. c #9499B6",
"u. c #9B9CB4",
"i. c #969AB9",
"p. c #999EBA",
"a. c #B795A5",
"s. c #A79CB5",
"d. c #BD9FB2",
"f. c #9FA1AD",
"g. c #9EA1B4",
"h. c #9FA3BD",
"j. c #A2A4B3",
"k. c #A2A5BC",
"l. c #A6A9BE",
"z. c #AAADBD",
"x. c #AAA4B8",
"c. c #BBA6B9",
"v. c #AEB1BE",
"b. c #C38EA0",
"n. c #C29DAC",
"m. c #C7A1B1",
"M. c #9DA2C1",
"N. c #A2A6C0",
"B. c #A7ABC4",
"V. c #AAADC3",
"C. c #ADB0C6",
"Z. c #ADB1CA",
"A. c #B3B4C2",
"S. c #BCB3C2",
"D. c #B7B9C4",
"F. c #BABBC6",
"G. c #B3B5CA",
"H. c #B5B9CC",
"J. c #BBBDCC",
"K. c #B7BAD1",
"L. c #BBBED2",
"P. c #B7ABC0",
"I. c #C4B5C3",
"U. c #C7B8C6",
"Y. c #BFC1CC",
"T. c #BEC1D3",
"R. c #C2C4CE",
"E. c #C2C4D5",
"W. c #C3C6D8",
"Q. c #C7C9D9",
"!. c #CBCDDB",
"~. c #C7C8D5",
"^. c #CDD0DE",
"/. c #D2D4DE",
"(. c #CFD4E2",
"). c #D4D6E2",
"_. c #D6D8E4",
"`. c #DDDEE7",
"'. c #D9DBE4",
"]. c #DEDFE8",
"[. c #DFE0E8",
"{. c #DFE0E9",
"}. c #DFE1EA",
"|. c #DFE0E9",
" X c #E0E1E9",
".X c #E0E1E8",
"XX c #E1E2EA",
"oX c #E5E6ED",
"OX c #E3E4ED",
"+X c #E9EAF4",
/* pixels */
"                                        # @ + + @ @ X X + + X X X + + + + + + + @ @ @ @                                         ",
"                                        & & * * & * * * * * * * * * * * % * * * * & & &                                         ",
"                                        5 6 6 7 9 9 9 9 9 9 9 9 9 9 9 9 9 9 9 9 7 6 6 5                                         ",
"                                      8 r d h x c v M S Z Z S S Z Z Z Z Z Z v c x h d r 8                                       ",
"                                  # 5 w x D ^ ' =.-.>.7.7.7.>.>.>.>.8.>.>.:.:.&.' ^ D x e 5 #                                   ",
"                                $ : 9 g R ' 9.k.z.D.F.Y.F.Y.Y.Y.Y.Y.Y.Y.Y.Y.v.v.j.9.[ R g 8 > #                                 ",
"                                5 9 s M ' y.V.T.!./._.'.'.'./.'./.'.'./.[././.!.L.V.y.' M d 9 ,                                 ",
"                              9 e g M ^ 9.V.L.(._.{.oXoXoXoXoXoXoXoXoXoXoXoX}.'.).T.z.5.^ M h r 9                               ",
"                          * 6 p x R ' 9.z.J.!.'.{.XXXXoXXXoXoXXXoXoX[.oXoXoX[.[.'.^.Y.z.5.' R x p 6 *                           ",
"                        + * 6 d D [ 0.B.L.!._.].{.XXXXXXXXXXXXXX[.oXoX[.oX[.[.[.[./.!.T.B.0.@.A d 6 * @                         ",
"                        @ * 7 g E 1.N.L.!.).].XX{.XX{.{.{.XX[.XX[.[.[.[.[.[.[.[.[.|.).Q.L.l.1.E g 6 * +                         ",
"                        @ * 7 g ~ r.Z.W./.'.].XXXX{.[.[.[.{.[.[.[.[.[.[.[.[.oX[.}.}.|.^.W.Z.5.~ g 7 * @                         ",
"                        @ * 6 g ~ 5.C.T./.'.XXXXXXXX[.[.[.[.[.[.[.[.[.[.[.[.[.[.XX[.`.^.T.Z.5.~ h 8 * +                         ",
"                        + * 6 g ~ 5.B.L.!._.[..X[..X[.[.[.[.[.[.[.[.[.[.[.[.[.[.[.[.).^.T.B.2.~ g 6 * +                         ",
"                        @ * 6 f T <.h.H.W.^._.'.[.[.[.{.[.[.[.[.[.[.[.[.[.[.[.[.|._.^.Q.K.M.1.T f 6 * @                         ",
"                        @ * 5 f Y [ t.B.K.W.^._.'.[.{.XXXX[.[.[.[.[.[.[.oX[.[.[.).^.W.H.B.r.+.Y f 5 * @                         ",
"                        @ * 5 r N ) 3.i.B.K.W.!.).`.[.[.{.{.[.[.[.[.{.{.{.{.'.).!.W.H.B.i.3.) N r 5 & @                         ",
"                        @ * 5 w n W  .e.i.N.Z.L.!.).`.[.XX{.[.[.[.[.XX{.{.`.).!.L.G.N.i.e.| W n t 5 * @                         ",
"                        @ * 5 w n W  .$.3.5.u.V.Y.!._.`.[.[.{.{.{.XX[.`.|.).!.Y.B.u.5.3.$.] W n r 5 & #                         ",
"                        @ * 5 r N ) ]  .) ` @.6.l.Y.!._.`.[.{.{.XX{.`.`._.^.Y.l.9.@._ {  .] } N r 5 & @                         ",
"                        # * 6 d T ] #.{ T m A ~ 5.C.T.^._.`.{.OXXX.X`._.(.T.V.6.^ A M T ` | ] T f 5 * @                         ",
"                        + * 6 g E +.+._ m d d m ` 9.C.T.!.).`.].[.`._.!.T.C.9.' x d d B ) *.*.Q g 8 * @                         ",
"                        @ * 8 h ^ <.<.^ k t 9 a A @.9.V.J.!.)._._.).!.J.V.9.' A a 8 9 l ^ 1.1.^ h 8 * @                         ",
"                        @ * 8 h ^ 1.1.~ g 7 5 7 a A ' 5.B.J.Q.!.!.Q.J.l.5.` A g 6 , 8 g ^ 1.1.^ j 6 * @                         ",
"                        @ * 8 l ^ 1.2.^ g 7 : : 6 a B ~ 6.l.H.T.T.H.k.5.~ m a 7 : : 6 h _ 1.1.^ l 8 * @                         ",
"                        @ * 8 h ^ 1.1.^ l 7 * & : 6 d A *.u.C.H.H.Z.s.=.Z d 6 : & * 6 h _ 1.1.^ h 8 * @                         ",
"                        @ * 8 h ^ 1.1._ k 7 % @ % < y C ' u.Z.T.K.Z.u...C y < = O & 7 k _ 1.1.^ h 8 * @                         ",
"                        @ * 8 l ^ 2.2._ k 8 % = - 2 u V ;.x.H.T.T.L.x...V u 1 - O * 6 h _ 1.2.^ l 8 * @                         ",
"                        @ * 8 h ^ 2.2.` h 7 = - 3 4 J L ,.c.Q.(.(.!.S.,.L i 4 3 - ; 7 h ` 2.1.^ h 8 * +                         ",
"                        @ * 8 h ~ *.#.^ h 9 1 1 4 J K I n.R.^.(._.^.U.a.I K J 4 2 1 9 k ~ <.*.^ h 8 * +                         ",
"                        @ * 8 g E ' ` E l a y u i K U X.n.U.Q.(.(.W.U.m.X.U K J u y a n E ` _ E g 8 * @                         ",
"                          * 6 f m T R A Z l b V P I b.b.n.c.G.H.H.G.P.m.b.X.X.P V b l Z A R T M d 6 *                           ",
"                              0 a g l m A E ' ;.a.n.m.c.s.u.t.r.r.r.u.s.m.m.n.a.;...E N M x g d 9                               ",
"                                , 7 e l E *.q.j.c.I.I.c.s.r.3.$.$.3.5.u.c.I.I.S.x.0.*.R l e 6 ,                                 ",
"                                @ * 8 k ^ 9.z.H.J.F.P.k.u.4.3.$.$.3.r.u.k.A.D.H.D.B.0.^ h 9 & +                                 ",
"                              . o # 6 l @.j.G.H.v.g.q.0.y.y.y.y.i.y.r.t.0.q.j.z.H.G.k.%.x 6 $ . o                               ",
"                          + o . o # 6 c -.v.D.z.:.O.( @.8.z.H.L.L.H.l.8.@.( / :.v.F.z.-.c 7 # . o X X                           ",
"                        ; * ; $ & > e S >.v.v.f.! x c A -.v.J.!.Q.T.z.:.G x c ! q.v.z.>.S e > $ & & ; *                         ",
"                        9 9 q 9 9 e z F >.f.f.O.z p p k / q.v.R.Y.A.q./ z q e x %.w.f.>.F z e 9 9 0 0 9                         ",
"                      p k v Z Z S G F / %.%.O.Z p , > p v %.>.w.q.:.O.S q , , p S / &.&.( H G S S Z v k p                       ",
"                  $ 7 k H %.>.f.q.w.>.&.( F z s , * : , s k v Z S v k p , * ; > p z G ( &.7.w.q.f.>.%.H k 7 $                   ",
"                $ > p v %.j.D.Y.R.v.j.-.F d 0 , : * : > 7 0 p s s p q 7 , : : > , q k F &.j.A.R.Y.D.j.%.v p > $                 ",
"                7 p k ! 8.A.~.^.~.F.f.%.M s 7 , 6 6 8 9 0 e s p s p p 0 9 7 6 6 5 8 s v %.g.A.~.!.~.A.8.H k p 7                 ",
"              p k v ! =.j.J.R.Y.v.j.-.! x d w w r f h x c v v Z Z Z v z l h d a t w a c ! -.f.A.Y.R.J.j.-.! v k p               ",
"          ; 9 k F &.w.x.C.G.z.u.=.( D B l j j N A E ^ ' =.:.7.7.>.>.:.=.@.~ E N N j j j l A ( =.g.C.C.C.x.8.%.H z 9 :           ",
"        + ; q v &.j.F.T.L.G.j.=.D h d f n N W ) [ 3.0.u.z.A.F.F.F.F.A.l.g.0.3.| { Y Y j f a k D =.g.G.T.T.D.j.%.v 9 * +         ",
"        + ; q v >.A.!.).!.H.i.' x 0 8 t n W  .3.i.N.V.H.J.E.W.E.~.~.T.J.H.Z.N.i.e. .W n w 8 w x ' g.H.!.).^.D.>.Z 9 * X         ",
"        + ; 0 Z 8.E.].OX_.E.j.' g 8 5 t N { e.M.Z.K.T.T.L.K.K.K.J.H.J.T.T.L.K.C.M.e.{ N t 5 8 h ' g.T._.oX`.R.w.S q : X         ",
"        + * 0 Z 8.R.[.+XoX^.v.&.z 9 6 r Y #.p.Z.L.Q.Q.L.Z.M.p.i.i.i.k.Z.L.W.W.E.Z.p.#.Y r 6 9 x %.C.^.OX+X[.R.8.Z q ; +         ",
"        X ; 0 Z :.F./..X`.Q.v.&.x 9 9 r A *.p.G.W.Q.W.K.M.r.3.| #.3.r.N.H.E.!.E.G.p.*.Y r 9 9 x %.v.Q.`..X/.F.>.Z q ; +         ",
"        + ; 0 v %.j.F.R.R.D.f./ z 9 6 w M ` 9.z.H.U.K.C.i.3.|  . .| 3.i.Z.J.J.H.k.9.` M e 6 9 k / f.D.R.R.F.j.%.c q * +         ",
"          : 9 k H %.>.q.q.>.O.S s 6 5 8 g A _ 2.h.B.B.N.i.e.3.| | $.e.i.N.B.B.g.2._ A g 9 5 6 s S O.:.q.w.>.%.H z 9 ;           ",
"              s z v Z S S Z z s 7 > : , 9 s x R ` 4.r.y.y.r.r.t.t.r.t.t.i.r.3.] R B s 9 5 : , 7 s z Z S S Z v z s               ",
"                9 9 0 q q 9 9 , : * * : 5 8 a n T { $.e.r.r.y.y.i.i.t.e.e.$.{ R x a 8 , * * & : , 9 q q q 0 q 9                 ",
"                ; ; ; * ; * ; & & & * : , 8 a l Y ) | $.3.3.1.2.1.3.3.3.<.| ) Y n a 8 5 : * & & * * * * * * * ;                 ",
"                  + X + + + @ @ # & * 5 9 a l Y ) [ #. .` _ ~ ~ ^ ~ _ { | |  .} A l d 9 5 * $ @ @ @ @ + X + @                   ",
"                              + @ & , 9 h A _ +.3.4.<.] R B h d d h B R ] <.3.3.<._ A l 9 , & @ +                               ",
"                                @ * 5 a M ` 1.5.y.r.<.^ x a 9 6 6 9 s m ^ <.t.y.5.<._ M a 5 * @                                 ",
"                                + * 6 d A _ 1.5.2.1.' R g 9 > # # * 9 g R ' 1.2.6.<._ D d 6 * @                                 ",
"                                  * 6 d m E ~ ^ ^ ^ D m r 5 # o o # 5 r m D ^ ^ _ ^ R m s 6 *                                   ",
"                                      w a g k k h h d d 9             9 s d h h h h g d w                                       ",
"                                        7 6 7 7 6 6 6 6                 6 6 6 6 7 7 6 6                                         ",
"                                        & * ; $ ; % & &                 & * * * * * * *                                         ",
"                                        @ @ @ @ @ @ @ @                 + + + # + @ + @                                         "
};
