/* XPM */
static char *_dfe5fa85e474637e93861593cef2657yFd0X1PbHNcGzXCL[] = {
/* columns rows colors chars-per-pixel */
"64 64 203 2 ",
"   c None",
".  c #0A0E27",
"X  c #0A0E2A",
"o  c #020727",
"O  c #0D142C",
"+  c #12152D",
"@  c #1D132E",
"#  c #161A2E",
"$  c #1A1B2F",
"%  c #1B1E30",
"&  c #151B30",
"*  c #15122E",
"=  c #21152F",
"-  c #28152F",
";  c #2E1430",
":  c #221C31",
">  c #2C1C32",
",  c #311731",
"<  c #3A1732",
"1  c #331D31",
"2  c #3D1A33",
"3  c #1E2132",
"4  c #28252E",
"5  c #322C2F",
"6  c #232432",
"7  c #2D2133",
"8  c #2B2B35",
"9  c #342334",
"0  c #3B2536",
"q  c #332338",
"w  c #372935",
"e  c #333234",
"r  c #3B3433",
"t  c #34363A",
"y  c #3D3D3C",
"u  c #3B3839",
"i  c #2E3037",
"p  c #451A33",
"a  c #4A1B34",
"s  c #541E32",
"d  c #5B1D38",
"f  c #5D1D37",
"g  c #541F2F",
"h  c #611E38",
"j  c #57202F",
"k  c #4A2037",
"l  c #4A223A",
"z  c #5E243B",
"x  c #443A32",
"c  c #423E3D",
"v  c #4C3C3E",
"b  c #56363D",
"n  c #41372F",
"m  c #6D2139",
"M  c #64243A",
"N  c #72243C",
"B  c #7A243C",
"V  c #7A2B3C",
"C  c #42423E",
"Z  c #4F4030",
"A  c #574A35",
"S  c #5C533F",
"D  c #6A5D3D",
"F  c #675637",
"G  c #644F32",
"H  c #7E6235",
"J  c #383B46",
"K  c #453E48",
"L  c #593649",
"P  c #723446",
"I  c #3E4044",
"U  c #3E414D",
"Y  c #444441",
"T  c #42414C",
"R  c #4B4743",
"E  c #595747",
"W  c #5D5B49",
"Q  c #595548",
"!  c #4E5156",
"~  c #6D4D47",
"^  c #655D46",
"/  c #68515F",
"(  c #66634C",
")  c #69654C",
"_  c #6D6A4E",
"`  c #6C6245",
"'  c #746B4E",
"]  c #6D6B52",
"[  c #6B6D5E",
"{  c #736E51",
"}  c #747051",
"|  c #7A7553",
" . c #676F6D",
".. c #6A6E6A",
"X. c #6A636A",
"o. c #656C74",
"O. c #667176",
"+. c #687276",
"@. c #77767B",
"#. c #8B2C34",
"$. c #8A273F",
"%. c #85273C",
"&. c #932A3F",
"*. c #9A2C3E",
"=. c #A6303C",
"-. c #B73639",
";. c #CD3C3C",
":. c #D63E3D",
">. c #DA3F3E",
",. c #896D39",
"<. c #A27D3A",
"1. c #DD413C",
"2. c #E1423C",
"3. c #892941",
"4. c #942B40",
"5. c #9B2C41",
"6. c #A52D44",
"7. c #AC2E45",
"8. c #B33243",
"9. c #BB3343",
"0. c #B03044",
"q. c #C63841",
"w. c #CA3941",
"e. c #C13640",
"r. c #827349",
"t. c #867A53",
"y. c #846F42",
"u. c #817C6C",
"i. c #A6823C",
"p. c #C3953D",
"a. c #9E8041",
"s. c #8B8459",
"d. c #8B8559",
"f. c #938A5B",
"g. c #96905E",
"h. c #9B935F",
"j. c #A68A47",
"k. c #B89648",
"l. c #A59353",
"z. c #A8995B",
"x. c #85856B",
"c. c #A39B62",
"v. c #A0956B",
"b. c #ACA365",
"n. c #ADA569",
"m. c #B1A564",
"M. c #B3A867",
"N. c #B4AB68",
"B. c #BAAC67",
"V. c #BFB36C",
"C. c #ABA571",
"Z. c #A9A87F",
"A. c #B9B57E",
"S. c #C69D46",
"D. c #C6A34B",
"F. c #CEA64B",
"G. c #CBAB53",
"H. c #CAA751",
"J. c #CCB35E",
"K. c #DBB859",
"L. c #D0A84C",
"P. c #CCBC6B",
"I. c #C0B56D",
"U. c #D2BF69",
"Y. c #C9B66A",
"T. c #CEC26F",
"R. c #CEC272",
"E. c #CDC47F",
"W. c #D2C573",
"Q. c #D6C974",
"!. c #D9CB75",
"~. c #D3C06B",
"^. c #E5CB69",
"/. c #EDD774",
"(. c #E3D579",
"). c #EBDD7D",
"_. c #E4D374",
"`. c #F1DC78",
"'. c #F1D56D",
"]. c #F2E27E",
"[. c #8E908C",
"{. c #A7AC9A",
"}. c #A8AA91",
"|. c #AAAB92",
" X c #9DA6A3",
".X c #A5B1A9",
"XX c #ABB3AA",
"oX c #B0B7AC",
"OX c #CDC580",
"+X c #CAC591",
"@X c #CBC995",
"#X c #DED387",
"$X c #E7D98C",
"%X c #ECE097",
"&X c #C9CBA7",
"*X c #C7CDB2",
"=X c #CED3B7",
"-X c #E7E6B6",
";X c #C8D3C4",
":X c #D0DAC8",
">X c #DAE2CC",
",X c #E3E8C6",
"<X c #E5EDD1",
/* pixels */
"                                                                                                                                ",
"                                                                                                                                ",
"                                                                                                                                ",
"                                                                                                                                ",
"                                                                                                                                ",
"                                                                                                                                ",
"                                                                                                                                ",
"                                                                                                                                ",
"                                                                                                                                ",
"                                                                                                                                ",
"                                                                                                                                ",
"                                                                                                                                ",
"                  . O O + + +                                                                     + + O O O .                   ",
"                3 3 # 3 # # # +                                                                 + # # % % % % 3                 ",
"                u u t i 6 3 # +                                                                 + # % 6 i t y y                 ",
"              R W W E R t 6 # O O                                                             O O & 6 t R E W W R               ",
"          3 y W s.d.s.} C t $ O O O + O O O O & O O & O O & + O O O O O & O O O O + O O O + O O O $ i R } s.d.s.E y 3           ",
"        O 3 y ( g.M.n.f.W t $ + + # # # $ $ # # # $ # $ # # # # $ $ $ # # $ $ $ & & % & % # + + + 3 u W f.n.M.h.( y 3 .         ",
"        O 3 y _ b.P.T.b._ y 3 + @ - > > 1 > > > > > 6 7 > > > > 7 > > > > > 6 > 1 > > 1 > > : = + 6 y _ b.P.P.b._ y 3 O         ",
"        . 3 y _ m.T.T.M.} C 4 @ 1 2 k k k k k k k k k l k k k k k k k k k k l l k a k k k a 2 > = 6 C _ M.Q.R.m._ y 3 .         ",
"        . 3 y ] m.T.W.M._ C 7 , a M M V N N N N N N N N N N N N N N N N N N N N N P N N N m M a , 7 c _ m.W.T.b.] y 3 X         ",
"        X 3 c ] n.R.W.n._ y 9 2 h P 4.5.5.4.4.4.4.4.4.4.4.4.&.&.4.4.4.4.&.4.4.4.4.4.4.4.*.&.B M 2 9 c _ n.W.W.n.] y 3 X         ",
"        X 3 I ] C.E.E.C.] Y q a N *.0.8.8.8.8.8.0.8.8.8.8.8.0.0.8.8.8.8.0.8.8.8.8.8.9.8.=.7.*.m p 9 C ] C.E.E.C.] Y 3 .         ",
"        . 3 I [ Z.+X+XZ...Y 0 j %.=.q.w.;.w.q.q.q.e.;.q.q.q.q.;.1.q.q.q.q.e.;.q.w.w.w.w.;.;.=.V g 0 Y ..Z.@X+XZ.[ J 3 O         ",
"        . 3 U ..|.&X&X|...T 0 j #.-.;.>.>.:.>.:.:.:.:.:.:.:.:.:.1.1.1.1.q.1.1.1.:.:.:.w.2.:.-.#.j 0 T ..}.&X&X}...T 3 O         ",
"        X 3 U  .{.*X*X{. .T 0 j #.-.:.2.2.2.1.1.1.1.1.1.1.1.1.1.1.1.1.1.1.1.1.1.1.1.2.2.2.:.-.#.j 0 T  .{.*X*X{...U 3 .         ",
"        . 3 U ..{.*X*X{. .T 0 j #.-.:.1.2.1.2.2.1.1.1.1.>.>.>.>.1.1.1.1.1.1.1.1.1.1.2.2.2.:.-.#.j 0 T O.{.*X*X{. .U 3 .         ",
"        . 3 U ..|.&X&X}...T 0 j #.-.;.:.>.>.w.w.:.:.:.:.>.:.>.:.e.1.q.1.:.:.;.-.:.1.w.w.>.;.-.#.j 0 Y ..|.&X&X}...T 3 .         ",
"        X 3 Y [ Z.+X@XZ.[ Y 0 a B =.-.w.w.q.e.e.q.q.;.q.q.q.;.q.q.e.q.q.q.q.q.q.q.q.q.q.w.-.=.B k 0 Y [ }.+X+XZ...Y 3 X         ",
"        X 3 J { C.E.OXC.] K w a B #.0.9.9.9.9.8.8.8.0.8.0.0.0.-.8.-.8.8.0.0.8.8.8.8.9.9.9.-.*.N p 0 K ] C.OXR.C.] J 3 X         ",
"        X 3 J _ b.R.R.n._ Y 9 p N *.=.9.0.0.0.6.5.4.&.&.&.&.&.&.4.4.&.&.&.&.4.5.7.7.7.9.9.7.4.N a 9 c _ b.R.R.b._ c 3 .         ",
"        X 3 c _ b.T.R.b._ y 9 p N *.6.8.0.0.6.5.%.B m m h N m m N h m m m m V $.4.7.7.0.7.7.4.N p 9 C _ b.T.R.b._ y 3 .         ",
"        O 3 c _ b.T.R.b.] c 9 p N 4.7.0.0.7.6.3.h a a < p p p p p p p p 2 a d h $.5.7.9.9.7.4.m a q K ( b.R.T.b._ y 3 .         ",
"        . 3 y _ b.T.R.b._ c 9 p m $.6.7.7.6.4.P f L 2 J q q q q 9 9 q q q q l M %.4.6.7.7.6.$.m p < K ] n.R.R.b._ y 3 .         ",
"        . 3 y _ b.T.R.b._ u > < d B $.5.5.4.3.P L L T J J T K T T T U U U K K L P P 4.4.4.$.B h < 1 u _ n.P.R.b._ y 3 .         ",
"        . 3 C _ b.R.R.b.] u > ; p f m N m N P P / X.o.O.O.O.+.+.+.+.+.+.O.o.X./ P P P m m m h p ; > J ) n.W.P.b._ C 3 .         ",
"        X 3 c _ b.R.R.b._ y % @ ; < p p p k L / @. X X.X.X.X.X.X.X.X.X.X.X X[.@./ L l p p p < ; @ @ u ) n.R.R.b._ y 3 X         ",
"        . 3 y ] b.R.W.m.} Y 8 % ; , > , 1 0 R X.[.oX;X:X:X;X;X;X;X;X;X:X:X;XoX XX.K l 9 > 9 7 : % 8 Y { M.W.R.b._ c 3 X         ",
"        X 3 y _ b.W.!.I.s.W Y u u c K u r v ~ u.|.=X>X<X>X:X;X;X;X;X:X,X<X,X=X{.u.W c e r x y y u Y ^ s.I.Q.W.b._ C 3 X         ",
"        . 3 y _ b.Q.(.Q.b.s.} _ ] ) ( ^ F ^ | v.+X-X-X,X;XoX.X.X XXXoX=X,X,X-X+Xv.r.D F ` ( _ _ ) { d.n.Q.(.Q.b._ y 3 X         ",
"        X 3 y ] b.Q.).).Q.I.M.b.b.b.z.l.j.j.k.I.#X%X%X@X}.[.@.O.o.@.[.}.@X%X%X$XJ.k.j.j.l.z.b.b.b.n.V.Q.).).!.b._ C 3 X         ",
"        X 3 u ( c.R.).).(.!.Q.R.R.P.P.J.D.D.G.K.`.$X#XA.x.! J J J K W @.|.#X$X'.K.L.S.H.J.P.T.R.R.Q.!.(.].).R.c.( u 3 .         ",
"        O % t W s.M.R.!.!.Q.R.W.W.R.P.J.D.F.L.K.'.`.!.M.{ K 3 O O 6 J { m.!.`.'.K.H.S.H.J.P.R.R.W.W.Q.Q.!.R.N.d.W t 3 X         ",
"        O % i Y ] s.c.b.n.b.n.n.n.b.z.l.j.j.k.G.^./.!.n.` e O o o O t ) b.Q./.^.G.k.j.j.l.z.b.b.n.n.n.b.b.c.d._ Y i % O         ",
"        + # 6 t C E ( _ _ _ _ _ _ _ ) ^ F D ,.l.U.(.Q.c.) e O o o X e ) b.Q._.U.l.y.D F ^ ) ] ] ] _ ' ] ) ( E C i 6 & +         ",
"        + # % 6 e u y C C C c y K c c c e C F s.B.U.P.m._ C 3 O O : y _ b.T.U.B.t.^ v u r c c c y C y y C C t i 6 3 # +         ",
"        + + % 6 5 r r e 8 4 6 6 > 9 1 1 1 0 v ' h.B.N.z.| E C u t C E | c.B.B.h.' A 0 1 9 1 9 7 4 6 6 8 e r e 5 6 3 # +         ",
"        + # 6 5 x Z x n 4 $ @ = , 2 p a a s b ~ r.g.h.g.s.| _ _ _ ' | s.g.h.f.t.~ z a a a p 2 , @ $ $ 5 n Z Z n 5 6 & +         ",
"        + % 8 x F ,.H G n 4 - 1 a h h B B B P P ~ ` { t.g.c.b.M.N.b.c.g.t.' ^ ~ P N B N B N h a , - 4 n G ,.H G x 5 # +         ",
"        O $ 5 A ,.<.<.,.A 5 > < d N 3.4.$.3.B P l v Q { g.N.R.Q.Q.R.N.g.{ Q K b m P $.4.4.$.N d < > 5 A ,.<.<.,.A 5 # O         ",
"        . $ r F <.S.k.j.F r > < d B %.4.4.$.B f 2 9 u Q s.b.T.!.Q.P.M.s.W u 9 2 z B $.4.3.$.N d < > r F j.k.S.<.F r : O         ",
"        O 3 y D j.H.G.j.D r : ; a h N B B m h a ; = 6 Y _ s.b.M.N.c.d.) Y 8 @ ; a h N B B m f a ; : r D j.H.H.j.^ x 3 O         ",
"        O 3 x ` z.J.J.l.` u : @ ; 2 a a a p < ; @ + 3 i C E ) ] ] ( E C i & + @ ; < p a a p 2 ; @ % u ^ z.J.J.z.` y % O         ",
"        . 3 c ) z.U.U.m.' C 7 $ : 9 9 0 0 q 9 6 : : 3 i t y C R R Y C t i 6 6 : > 9 q 0 0 8 9 > : 8 C _ m.U.U.b.) y 6 X         ",
"        . 3 y _ m.T.Q.V.s.W Y y u y c C C c C C K y y C C Y Y Y Y Y C C C y y c c C c c C y y y u Y ^ s.Y.Q.P.c._ c 3 .         ",
"        X 3 J _ b.W.(.R.b.s.} _ _ _ _ _ _ _ _ _ _ _ _ _ _ ) ) ) ) ) _ _ _ _ _ _ _ _ _ _ _ _ _ ( ) { d.n.W._.W.n.) c 3 .         ",
"        X 3 y _ c.!.$X).W.I.N.b.n.b.b.b.b.n.b.n.b.n.n.n.n.c.c.n.b.b.n.n.b.n.n.n.b.b.b.n.n.b.b.b.b.N.V.W.).$XQ.c.] y % X         ",
"        X 3 y ( c.Q.`.]._.!.W.T.R.R.R.R.R.R.R.R.W.R.W.R.W.W.R.P.R.R.P.R.P.W.R.W.W.R.R.R.R.T.R.R.R.W.!./.].).Q.z.) y % .         ",
"        X 3 y ` z.U.'.`._.Q.W.R.R.P.R.R.R.R.R.R.P.R.P.W.P.W.R.R.P.R.R.R.R.R.R.R.R.R.R.R.R.R.T.R.R.R.!._.`.'.U.z.( y 3 O         ",
"        X % u ` l.Y.^.^.U.B.b.b.b.b.b.b.b.b.b.b.n.n.b.b.b.n.m.b.n.b.b.b.b.b.b.b.b.b.b.b.n.b.b.b.b.m.B.P.^.^.Y.l.^ u 3 .         ",
"        O $ r D j.H.K.H.l.t.' ) ] ) ] ] _ ] _ { _ ] _ _ _ _ _ _ _ _ _ _ _ ] _ _ _ _ _ _ _ _ _ ) _ ' t.l.H.K.D.j.D u % X         ",
"        O $ r F i.p.F.k.,.E C t u y y u y y u y u y c u y y y y y y y c u y u y y u y y y y y y t C S y.k.F.S.i.F r 3 O         ",
"        O 3 n F <.S.p.i.D r 6 # & % $ $ $ % % % % % % % $ $ % % % % % % % % % % % % % 3 3 & # # # 4 r D i.p.p.<.F r $ O         ",
"        . : n F i.i.p.<.G 5 + X o . O X O X X X X X . O X + X X X X X X X X X O X X X X X X O o o # 5 G <.p.p.<.G r $ O         "
};
