/* XPM */
static char *_9a3797e70d54feafce5d7125accb830kR1GExLuhV1leGr4[] = {
/* columns rows colors chars-per-pixel */
"64 64 217 2 ",
"   c None",
".  c #050D26",
"X  c #0B122A",
"o  c #13172C",
"O  c #14182E",
"+  c #1A1A2F",
"@  c #1A172D",
"#  c #161A30",
"$  c #1C1E33",
"%  c #0D1931",
"&  c #251D31",
"*  c #2B1F31",
"=  c #1C2036",
"-  c #1D233C",
";  c #242235",
":  c #2D2436",
">  c #21263F",
",  c #2C293A",
"<  c #302435",
"1  c #332D3C",
"2  c #392B3B",
"3  c #372738",
"4  c #36303E",
"5  c #3A323F",
"6  c #482E3B",
"7  c #4B323E",
"8  c #46303D",
"9  c #162C44",
"0  c #252A44",
"q  c #252C4A",
"w  c #292E4A",
"e  c #232740",
"r  c #2C304C",
"t  c #203046",
"y  c #3C3542",
"u  c #373549",
"i  c #2F3450",
"p  c #343856",
"a  c #353C5C",
"s  c #393E5D",
"d  c #333855",
"f  c #342D41",
"g  c #403342",
"h  c #443A45",
"j  c #4B3B45",
"k  c #433C4D",
"l  c #4A3E4A",
"z  c #4D3743",
"x  c #533642",
"c  c #583C48",
"v  c #463C50",
"b  c #643E46",
"n  c #663C4A",
"m  c #753C47",
"M  c #25495F",
"N  c #3C405F",
"B  c #3D4160",
"V  c #394F62",
"C  c #5B494F",
"Z  c #58444B",
"A  c #4C4353",
"S  c #45445C",
"D  c #4B465B",
"F  c #514654",
"G  c #5B4B51",
"H  c #564B5A",
"J  c #4B404D",
"K  c #6E424A",
"L  c #69434B",
"P  c #74454C",
"I  c #7A464D",
"U  c #634C54",
"Y  c #6C4956",
"T  c #774954",
"R  c #655356",
"E  c #6B5659",
"W  c #6D595B",
"Q  c #635258",
"!  c #77565C",
"~  c #7E615F",
"^  c #434561",
"/  c #4C4B63",
"(  c #474862",
")  c #545166",
"_  c #5B5569",
"`  c #5A5468",
"'  c #585E74",
"]  c #504E66",
"[  c #635A6B",
"{  c #695C6C",
"}  c #695963",
"|  c #745C67",
" . c #67616D",
".. c #7D6462",
"X. c #766068",
"o. c #696676",
"O. c #756672",
"+. c #7B6B75",
"@. c #7E6977",
"#. c #82464D",
"$. c #874C52",
"%. c #855253",
"&. c #8C5A5A",
"*. c #895458",
"=. c #9B5D5B",
"-. c #945B5A",
";. c #A05E5B",
":. c #A4615F",
">. c #895961",
",. c #9B5E61",
"<. c #846768",
"1. c #9B646E",
"2. c #946665",
"3. c #8E726D",
"4. c #94746D",
"5. c #9A746C",
"6. c #9A796F",
"7. c #826D75",
"8. c #8E6774",
"9. c #8B757A",
"0. c #857179",
"q. c #927572",
"w. c #977875",
"e. c #AC6C64",
"r. c #A56561",
"t. c #B26E66",
"y. c #A9736D",
"u. c #B2736B",
"i. c #B5756B",
"p. c #AA7C78",
"a. c #C57A6D",
"s. c #C27E71",
"d. c #D27F70",
"f. c #9D817F",
"g. c #A48075",
"h. c #AB8275",
"j. c #AB867A",
"k. c #A9867F",
"l. c #B38B7C",
"z. c #BC8B7B",
"x. c #B78778",
"c. c #CC8A7A",
"v. c #C68778",
"b. c #D58977",
"n. c #D6927E",
"m. c #346D83",
"M. c #476D81",
"N. c #5D6D84",
"B. c #5B788D",
"V. c #64768C",
"C. c #877986",
"Z. c #51859A",
"A. c #708397",
"S. c #498EA2",
"D. c #6B99AC",
"F. c #65AABC",
"G. c #9E8180",
"H. c #9C838F",
"J. c #948B96",
"K. c #928C98",
"L. c #A88586",
"P. c #B38987",
"I. c #B99082",
"U. c #B69188",
"Y. c #BA948A",
"T. c #B79085",
"R. c #AD9393",
"E. c #A79BA1",
"W. c #97A2B0",
"Q. c #AAA3AD",
"!. c #BCB2B7",
"~. c #B8A6AD",
"^. c #C29A8D",
"/. c #CC9E89",
"(. c #C59787",
"). c #D19481",
"_. c #D89B85",
"`. c #CA948D",
"'. c #E49C86",
"]. c #D3A38D",
"[. c #DCA38E",
"{. c #CCA292",
"}. c #DCAA94",
"|. c #D8A693",
" X c #E7A38B",
".X c #F3A88E",
"XX c #E3AD94",
"oX c #EAAE93",
"OX c #E2A690",
"+X c #EBB59A",
"@X c #E8B198",
"#X c #F4BC9D",
"$X c #F9B89A",
"%X c #F1AD92",
"&X c #D9B4AA",
"*X c #C4ABB3",
"=X c #CBB3B3",
"-X c #D0BAB6",
";X c #F0BDA7",
":X c #F5C0A1",
">X c #FDC5A3",
",X c #FFC9A6",
"<X c #FBC9AA",
"1X c #F4CCB9",
"2X c #83B6C6",
"3X c #A3BAC7",
"4X c #87C3D2",
"5X c #B2CAD6",
"6X c #D5C9D1",
"7X c #D0CCD3",
"8X c #EADAD8",
"9X c #EDD0C5",
"0X c #D2DDE7",
"qX c #E1DEE6",
"wX c #DEE6EF",
"eX c #E8E5E8",
"rX c #E6EAF2",
/* pixels */
"                                                                                                                                ",
"                                                                                                                                ",
"                                                                                                                                ",
"                                                                                                                                ",
"                                          o o O o o o o o o O o o O o o o o O o o o o                                           ",
"                                        # # O # # # # # # # # # # # # # # # O O # # # #                                         ",
"                                        $ $ $ $ $ $ $ $ - $ - $ $ = $ $ - $ = $ $ $ $ $                                         ",
"                                      = - e > > e e e e - e - e e e > > > > e e e e - - -                                       ",
"                                  O $ - e w r r r r r w r w w w w w r r w r r r r w w 0 - $ o                                   ",
"                                O # - - w i d p p p p d p d a d p p p p p p p p p p i w e $ # #                                 ",
"                                # - > 0 r p a N N s a a N N a a s s s s a N a a s a p r q > $ #                                 ",
"                              = - e 0 w p a N N B B N N N N N B s N N N B B B B B N a d w 0 e > -                               ",
"                          # $ - 0 w i i p a a B B B N a N N N B N N B B B N N N B s a a i i w 0 - $ O                           ",
"                        o # $ > q i d a s s B B a B B B N B a B B a a B B a N N N s N a a p i w > $ # o                         ",
"                        O # $ e r p s N a B a B a B s N N N a N B N s N B a B a N s a N a a d w e $ # o                         ",
"                        o # # e r p a B a a a B a a s s a N N B s s a B s s N s a s a N N s p w e $ # o                         ",
"                        O # = > r p s N s a s a s s N s B s N a s B B s N N N a a a a a N a d r e $ # O                         ",
"                        O # = > r p N B B B B B N N s s a s B a s s a s a a N B B B ^ ^ N S d r e # # O                         ",
"                        o # = e r p N / ] ) ) / ( B N a a B a B s s a a a B B ( ] ) ) ] ( S d w e $ # X                         ",
"                        o O = - r p ( )  .O.O. .) B s a a a a a a a a a a N ^ ) { O.+. .) ^ a w e $ # #                         ",
"                        O O = - w a /  .9.L.G.0. ./ B a a a a N a a a a a B (  .9.G.G.9.{ ] a w 9 # # O                         ",
"                        o % = - w a ` +.L.^.Y.L.+._ ( N N N N B B B B B B ( _ +.L.Y.^.L.+.` p w - $ % o                         ",
"                        X O = - q s _ 0.Y.|.}.{.G.+.[ ) ) _ _ _ _ ' _ ) ) [ +.G.^.}.}.Y.0.` a q - # % o                         ",
"                        X X % - 0 a _ 9.^.@X+X}.Y.G.9.0.+.0.0.+.0.@.0.@.0.9.G.Y.}.+X@X^.9.` s 0 - % O X                         ",
"                        X % O - 0 s ` 9.Y.@X:X#X}.{.^.Y.U.U.U.Y.U.U.T.U.Y.Y.{.}.#X#X@XY.9._ s 0 - # X X                         ",
"                        # $ = > w s ` 7.U.|.+X#X@X}.}.|.}.}.}.}.}.}.}.}.|.}.}.+X#X+X|.U.0.) a r e ; = +                         ",
"                        1 5 5 N d S ) O.f.(.].}.|.}.}.XX+X#X#X#X:X#X#X+XXX}.}.|.}.].Y.f.O.) S d u u y 4                         ",
"                      l C R R H D S / } 7.w.j.P.l.T.(.].oX#X>X,X,X>X#X@X].(.I.I.l.j.f.<.[ / S D H Q R C l                       ",
"                  $ 5 U <.4.f...[ D ^ ( ` W | X.X...q.l.{.+X>X,X,X>X+X/.l.q.<.X.X.X.} ` / ( D  .+.q.4.<.G 5 ;                   ",
"                X = 5 R g.l.l.f.O.` S S S A F A A H W q.Y.XX:X,X,X:XXX(.3.} H A A F A S N S ` O.g.T.l.6.R y = X                 ",
"                X ; 5 W g./.].Y.0._ ( N S A A v u u H ..l.}.:X,X,X:X}.l...H u u J S A S N S _ 0.Y.]./.h.W g $ X                 ",
"                X + g W j.].XX^.9._ / D ` Q Q F u f k | j.}.:X,X,X:X}.j.} k f u F Q Q ` D D ' 9.^.XX].j.W u & X                 ",
"                X = 5 W j.].}.^.9._ ) [ +.f.+.W J y h E j.].:X,X,X:X].j.E J y J | 3.q.7._ ) [ 0.^.}.|.l.W 8 = X                 ",
"                X ; 5 W j./.].Y.0.[ [ O.f.l.l.g.G y h E g.].#X,X,X#X].g.R y y G 4.l.T.f.O.[ { 7.U.]./.g.W g $ X                 ",
"                X $ 5 E 6.l.I.k.<.{ X.9.Y.].n.g.R h 5 C 5./.oX$X$XoX/.5.U y y R g./.].Y.q.| | 7.k.I.l.6.R y $ X                 ",
"                  $ 5 C <.6.5.4.<.<.3.j.].XX].l.E y 2 Z 2.z.'..X.X_.v.2.Z 5 y E j.].XX].k.8.| <.4.6.4.<.C 5 =                   ",
"                      J G R W ! ! 2.y.v.}.oX].h.R 5 1 7 *.u.c.b.b.v.i.&.j 3 5 E j.[.oXOXv.y.2.&.! W R G h                       ",
"                        4 5 j Z T -.t.v. XoX].h.W J 8 Z %.e.a.d.b.v.e.%.Z 5 J W h.].oX Xc.y.&.I Z j y 1                         ",
"                        O & : 6 n %.r.s.n.XXn.x.~ L C U -.t.d.d.d.a.t.-.R Z C <.x./. X_.s.r.%.b 6 < & o                         ",
"                        . X @ < 7 m &.e.z.n.n.x.6.<.<.2.y.a.b.b.b.b.x.e.2.&.<.5.x.n.n.v.e.*.K 7 < @ X .                         ",
"                        . X o @ < 6 L %.e.x.b.c.v.P.v.`.).).'. Xn.n.n.n.`.C.b.v.c.c.s.r.%.L 8 : + o X .                         ",
"                        O $ $ = : 2 z P &.e.a.c.`.`.[.OX@X%X%X$X.X$X$X$XOX[._.).b.s.e.-.P z 1 : ; = # #                         ",
"                        4 y y u u p F U *.=.t.a.b.'..X;X;X;X;X<X<X<X>X:X;XOX'.).s.t.,.*.U A J u y y 4 4                         ",
"                      J C R W  . . . .| ! &.=.e.a.`.[..X;X1X9X9X9X1X1X:X@X'.`.s.t.;.*.| {  . . . .W R C J                       ",
"                  O 4 Z ..6.f.R.J.E.J.C.<.! $.*.:.a.`.`.&X1X8X8X8X9X1X&X{.(.u.:.*.$.>.X.C.J.J.E.R.f.g.~ Z 1 O                   ",
"                O ; y E 6.l.{.&X=X!.Q.J.7.! P I $.:.C.`.*X6X8XqXeX8X6X=XY.y.,.$.I P T 7.J.Q.!.=X&X^.l.4.R h ; O                 ",
"                1 g C &.h./.}.&X-X!.Q.J.@.E n m #.$.1.`.*X6XqXqXrXqX7X*XC.1.$.#.m n T 7.J.Q.!.-X&XXX/.h.~ C y ,                 ",
"              h F R ~ 5.z.).|.}.~.E.J.C.| Y m m #.$.1.C.*X6XqXrXrXqX6X*X`.1.$.#.m b E | C.J.E.~.|.].n.z.5.~ E Z J               ",
"          $ 5 G ~ 4.h.v.c.c.v.h.9.+. .{ ! T T $.#.>.1.C.*X6XqXrXqXqX6X*XC.1.$.#.#.I T }  . .+.q.j.v.c.c.z.h.6.~ J 5 $           ",
"        X $ 5 R 6.l.].n.n.c.i.2.E F v l n m m $.$.$.C.P.*X6X0XwXwX0X6X*XP.1.>.$.#.T m n J J F R 2.i.v.n.[.n.z.g.R 5 $ X         ",
"        X $ y E j./.oX%X Xb.t.*.Z 2 3 2 z n m T $.>.1.C.W.5X0X0X0X0X6XQ.C.C.>.m T m m x 2 , 5 b &.i.b.'.%XoX/.g.R y $ X         ",
"        X = y E j.}.#X$X.Xn.i.&.c : & & f x n n T >.C.C.W.3X5X5X5X3X3X~.C.C.| Y n n 7 3 & & 3 c -.i.n..X$X#X}.j.W y $ X         ",
"        X = y W h.}.#X>X$X.Xc.5.C 1 & @ & 3 g v ] _ V.C.W.2X4X4X4X4X2XD.A.V.[ H v g 3 * + & 1 C 5.c. X$X,X:X}.j.W 5 $ X         ",
"        X $ 5 E g.].+X:X$XoXc.5.U 1 + o $ * f k / ' N.V.B.D.F.F.F.F.F.B.V.N.' / v r - & o + 1 C 6.c.oX$X:X+X].g.E 5 $ X         ",
"        X $ 5 R g.l./.}.}./.l.3.G 1 $ @ & < 5 l ] [ N.N.B.S.S.S.S.S.B.B.V.N.' ] v f 3 & + $ 1 C 3.l./.}.}.].z.4.R 5 = %         ",
"          = 5 C ~ 4.g.l.j.g.3.W l , & & 3 z Z U | N.N.N.M.m.m.m.m.m.m.B.N.N.O.| Y c g 3 ; ; , J W 3.g.j.j.h.4.~ G 5 =           ",
"              J G R E W W E G h 1 ; ; 3 7 P %.&.2.2.<.X.) V M M m.M B ) { <.8.2.-.%.K 7 2 * ; 1 J G R ~ W W R G J               ",
"                5 5 y y y 5 5 , ; = : 8 K %.=.;.e.2.>.W A u 0 9 9 9 d v | -.r.:.;.-.$.K 8 < $ ; , 4 5 5 5 5 5 5                 ",
"                $ $ $ $ $ $ $ O O = : 7 K %.=.;.=.=.%.P j , $ % % - e x P *.-.;.;.-.%.K 7 : $ O O # $ $ = $ = $                 ",
"                  X X X X X X X X + : 7 L P #.%.%.#.P b 8 * @ . . X * 6 b P I $.%.#.P L 7 < # X X X X X X X X                   ",
"                                      2 7 7 x x 7 7 7 7 3             2 6 7 7 c x x x 7 5                                       ",
"                                        < < , < 3 < < <                 : : < < < , , <                                         ",
"                                        $ + $ O + + + +                 + + @ @ + + + +                                         ",
"                                        X o X O X X o X                 X X o o X o X %                                         "
};
