/* XPM */
static char *_7b1f8a8613143baa4706931e7cef894hFl3agYCQT3Z2iWW[] = {
/* columns rows colors chars-per-pixel */
"64 64 215 2 ",
"   c None",
".  c #060E26",
"X  c #0B1229",
"o  c #13172C",
"O  c #14182E",
"+  c #1C192E",
"@  c #1A172D",
"#  c #161A30",
"$  c #1B1E33",
"%  c #251D31",
"&  c #1C2036",
"*  c #1D233C",
"=  c #242235",
"-  c #2C2335",
";  c #21263F",
":  c #2B2839",
">  c #322535",
",  c #332D3C",
"<  c #392B3C",
"1  c #39273A",
"2  c #36303E",
"3  c #39323F",
"4  c #46303D",
"5  c #4E303C",
"6  c #4D303C",
"7  c #1A2C43",
"8  c #252A44",
"9  c #252C4A",
"0  c #292E4A",
"q  c #232740",
"w  c #2C304C",
"e  c #3B3542",
"r  c #373549",
"t  c #2F3450",
"y  c #343856",
"u  c #353C5C",
"i  c #393E5D",
"p  c #333855",
"a  c #342C41",
"s  c #403342",
"d  c #443A45",
"f  c #4B3B45",
"g  c #433C4D",
"h  c #4B3E4B",
"j  c #523442",
"k  c #553A44",
"l  c #5A3C4A",
"z  c #473D50",
"x  c #653E48",
"c  c #753C47",
"v  c #3C405F",
"b  c #21485E",
"n  c #3D4160",
"m  c #384F62",
"M  c #294A60",
"N  c #5B494F",
"B  c #58444B",
"V  c #4D4354",
"C  c #45445C",
"Z  c #4B465B",
"A  c #514554",
"S  c #5B4B51",
"D  c #564B5A",
"F  c #4B404D",
"G  c #6D414A",
"H  c #69434C",
"J  c #78444D",
"K  c #624B54",
"L  c #6C4956",
"P  c #784A54",
"I  c #655356",
"U  c #6B5659",
"Y  c #6D595B",
"T  c #635258",
"R  c #77565C",
"E  c #7E615F",
"W  c #434561",
"Q  c #4C4B63",
"!  c #474862",
"~  c #524F65",
"^  c #555066",
"/  c #5B5569",
"(  c #5A5468",
")  c #575D74",
"_  c #4F5666",
"`  c #635A6B",
"'  c #6A5D6C",
"]  c #685963",
"[  c #745C67",
"{  c #5E6C7E",
"}  c #64616E",
"|  c #7D6462",
" . c #766068",
".. c #6B6372",
"X. c #756672",
"o. c #7B6B75",
"O. c #7E6977",
"+. c #82454C",
"@. c #884B53",
"#. c #855354",
"$. c #8B595A",
"%. c #895458",
"&. c #9D5E5C",
"*. c #925C5B",
"=. c #A45D5A",
"-. c #975F61",
";. c #845361",
":. c #846768",
">. c #9B646E",
",. c #936664",
"<. c #8E726D",
"1. c #94746E",
"2. c #9A746C",
"3. c #9A796F",
"4. c #826D75",
"5. c #8E6774",
"6. c #8B757A",
"7. c #857179",
"8. c #927572",
"9. c #977875",
"0. c #AC6B64",
"q. c #A76562",
"w. c #B76A63",
"e. c #A9736D",
"r. c #B2736B",
"t. c #B5756B",
"y. c #AA7C78",
"u. c #C56D65",
"i. c #C7776B",
"p. c #C27E71",
"a. c #D27F70",
"s. c #9D817F",
"d. c #A48175",
"f. c #AB8275",
"g. c #AA867A",
"h. c #AA877D",
"j. c #B38B7C",
"k. c #BC8B7B",
"l. c #B78778",
"z. c #CC8A7A",
"x. c #C68778",
"c. c #D58977",
"v. c #D6927E",
"b. c #346D83",
"n. c #476D81",
"m. c #5D6D83",
"M. c #5A778D",
"N. c #64768C",
"B. c #877986",
"V. c #51859A",
"C. c #708397",
"Z. c #498EA2",
"A. c #6A99AC",
"S. c #65AABC",
"D. c #9E8180",
"F. c #9C838F",
"G. c #948B96",
"H. c #928C98",
"J. c #A88586",
"K. c #B38987",
"L. c #B99082",
"P. c #B69188",
"I. c #BA948A",
"U. c #B79085",
"Y. c #AD9393",
"T. c #A79BA1",
"R. c #97A2B0",
"E. c #AAA3AD",
"W. c #BCB2B7",
"Q. c #B8A6AD",
"!. c #C29A8D",
"~. c #CC9E89",
"^. c #C59787",
"/. c #D19481",
"(. c #D89B85",
"). c #CA948D",
"_. c #E49C86",
"`. c #D3A38D",
"'. c #DCA38E",
"]. c #CCA292",
"[. c #DCAA94",
"{. c #D8A693",
"}. c #E7A38B",
"|. c #F3A88E",
" X c #E3AD94",
".X c #EAAE93",
"XX c #E2A690",
"oX c #EBB59A",
"OX c #E8B198",
"+X c #F4BC9D",
"@X c #F9B89A",
"#X c #F1AD92",
"$X c #D9B4AA",
"%X c #C4ABB3",
"&X c #CBB3B3",
"*X c #D0BAB6",
"=X c #F0BDA7",
"-X c #F5C0A1",
";X c #FDC5A3",
":X c #FFC9A6",
">X c #FBC9AA",
",X c #F4CCB9",
"<X c #83B6C6",
"1X c #A3BAC7",
"2X c #87C3D2",
"3X c #B2CAD6",
"4X c #D5C9D1",
"5X c #D0CCD3",
"6X c #EADAD8",
"7X c #EDD0C5",
"8X c #D2DDE7",
"9X c #E1DEE6",
"0X c #DEE6EF",
"qX c #E8E5E8",
"wX c #E6EAF2",
/* pixels */
"                                                                                                                                ",
"                                                                                                                                ",
"                                                                                                                                ",
"                                                                                                                                ",
"                                                                                                                                ",
"                                                                                                                                ",
"                                                                                                                                ",
"                                                                                                                                ",
"                                          O o o O o o o o o o o O O O o O o o O o o o                                           ",
"                                        # # # # # # # # # # # # # # # O # O # # # # # #                                         ",
"                                        $ $ $ $ $ $ $ $ $ $ $ $ $ $ $ $ $ $ $ $ $ $ $ $                                         ",
"                                      $ * q 7 q ; 7 q q q q q 7 q q q q q q q 7 q 7 % 7 *                                       ",
"                                  # # 7 8 0 w w w w w w 0 w w 0 0 w w w w w w w w 0 9 8 % # #                                   ",
"                                # # $ 8 0 t p u y y p y p u u p y y y y p y y y y y t 9 * 7 # #                                 ",
"                                $ $ % 8 w p u i i i u i i i i u i i i u i i i i i i u w 9 ; $ #                                 ",
"                              & * q 9 0 p u i n n n i i i n i n n i i n n i i n n i u p 0 8 q % *                               ",
"                          # $ * 9 0 t p p u i n n n i i n i n i u n n i u n u n n i i y p w 0 q * $ O                           ",
"                        O # $ * 9 t p u i i i i i i n n n n n n n n i n n n n n i n i u u y w 0 q $ # O                         ",
"                        O # $ 7 0 p i i i i i i i i i i i i n i i n i n i n n i i i i i v u p w q # # O                         ",
"                        O # $ q w y i i i u i i i i i i i i i i n u i i n u i i i i u i v v u w q $ # O                         ",
"                        o # * ; w y u i i i u u i i i i u v v v i n u n i i i u u i u i i u y w q $ # o                         ",
"                        o # $ ; w u i n n n n n n n i i v v u v i i n u i i n n n n n n n i y w q # # o                         ",
"                        o # # ; w y n Q ~ ^ ^ ~ W n i u u M v u i i u u u i n W ~ ~ ^ ~ ! C y 0 q $ # o                         ",
"                        o # * ; 0 y W ^ ..X.....~ W i u u y u v u u u u u i W ~ } X.X.../ ! y 0 7 $ # o                         ",
"                        O O # ; w y ~ ' 6.J.D.6.} Q v u u u u u u u u u u i ! } 6.D.D.B...~ y 0 7 # # O                         ",
"                        O O # 7 9 i ^ 4.J.I.I.J.4./ ! v n n n n n n n n i W / 4.K.I.I.J.o.^ i 0 ; $ O X                         ",
"                        O O O 7 0 y / 7.I.{.[.!.s.o./ / ( ( / / ) / / / ^ ` O.B.].{.{.I.7.( i 8 * # O O                         ",
"                        X X O * 9 i / 6.!.OXoX[.I.D.6.7.7.o.7.4.4.7.4.O.4.6.J.!.[.oXOX!.6.( i 8 * # O X                         ",
"                        X X # * 9 y / B.I.OX+X+X[.].I.I.I.P.P.P.P.P.P.P.I.I.].[.+X+XOXI.7.( u 9 * # X X                         ",
"                        $ & = 8 0 z / 4.K.{.oX+XOX[.[.{.[.[.[.[.[.[.[.[.[.[.[.oX+XoX{.P.4.( i w 7 * $ #                         ",
"                        2 2 e r p z ^ X.J.^.`.[.[.[.[. XOX+X+X-X-X+X+XoX X[.[.{. X`.!.9.X.^ z y r r r a                         ",
"                      h N I T D ! C ~ ` o.9.J.j.U.j.^.`.OX-X;X;X:X;X+XOX`.^.L.j.j.J.9.4.` ~ Z Z D T K K h                       ",
"                  $ 3 S :.3.8.o.` ~ Z Z ^ Y  . .E o.8.j.`.oX-X:X:X;XoX`.j.8.:. . .Y ] ( Z C ~ ` 4.8.1.| S 3 $                   ",
"                X $ 3 I 3.j.j.D.X._ C v C Z V V V D Y <.k. X-X:X:X-X XI.8.Y D V V Z Z Z v C ^ X.d.U.j.3.U e = X                 ",
"                X $ 3 E g.~.{.I.7./ C v C V V F r r N E j.[.-X:X:X-X[.j. .A r r F V V V C C / 7.I.`.~.g.I 3 $ X                 ",
"                X = 3 Y j.`.[.!.6.` Q Z ( T D V r r m Y h.[.-X:X:X-X{.g.Y F a r Z T T ( C ! ` 6.!.[.`.j.E 3 $ X                 ",
"                X $ 3 E j.`.[.!.6./ _ ` o.8.8.E F r F U d.[.-X:X:X-X{.f.Y g e F E 4.8.4./ ~ ` 6.!.[.`.g.Y 3 $ X                 ",
"                X $ 3 I f.~.`.I.o.' ` X.h.L.j.<.S 3 e I d.~.+X:X:X+X`.d.I g e S 8.j.U.s.X.` ' 4.I.`.~.d.U d = X                 ",
"                X $ 3 U 3.j.L.g.4.[ [ 6.I.`.~.d.I d 3 I d.v.#X;X@X.X^.2.N d d I y.^.`.!.8.X.[ 4.J.U.j.d.I 3 = X                 ",
"                  = 3 S :.1.3.1.:.;.e.B.`. X`.g.U 3 2 B ,.v.v.v.|.'.x.,.B 3 e I g.'. X~.y.5.[ :.8.3.1.:.S 3 $                   ",
"                      F N I U R %.,.e.x.XX.X`.g.I 3 2 5 $.t.x.c.c.c.0.#.f < 3 I g.`..X}.x.e.,.R R U I N F                       ",
"                        2 3 f B P *.0.z.}..X`.g.U F 4 k #.0.u.c.c.i.0.#.k 4 F Y g.`..X}.z.w.*.P H h 3 2                         ",
"                        O + : 4 x #.q.x.(.'.(.g.E N N L ,.w.i.c.c.u.t.*.K N N :.j.~.}.v.x.=.#.H 4 - & O                         ",
"                        . X @ > j x %.0.x.v.v.k.2.:.:.,.e.l.c.c.c.c.x.e.,.$.:.2.k.v.v.x.0.#.G 5 - @ X .                         ",
"                        . X o % > 4 H #.q.p.z.z.).y.k.x.)._._.|.v.v.(./.L.k.j.k.z.z.x.q.#.H 4 - + o X .                         ",
"                        O + $ & - < 5 L *.w.i.z./.).(. XXXOX@X@X@X@XoXOX[.'.(./.x.x.0.*.H 6 < : = + $ +                         ",
"                        2 3 e r r F A K #.&.0.x./._.XX=X=X=X=X=X:X>X>X-XoX.X(./.i.0.&.#.I A g r r r 3 2                         ",
"                      F S I I } } } } [ R %.&.0.p./.}.=X=X=X,X,X,X,X,X-XOX'./.p.0.&.*.R [ } } } } Y I N F                       ",
"                  O 2 B E s.s.Y.T.H.H.B.:.R #.%.q.r.^.).$X7X6X6X6X7X7X=X).c.u.=.*.P R :.6.H.H.T.J.s.d.E B , o                   ",
"                O : 4 I 3.j.~.$X&XW.E.G.4.R J J @.-.y.).%X4X6X9X9X6X4X%X).B.>.@.J J P o.H.E.W.&X$X].g.d.I 4 = o                 ",
"                , d N E f.~.[.$X*X%XE.G.O.L G x +.;.>.B.%X4X9X9X9X9X4X%XK.B.@.+.c x R O.H.E.&X*X$X[.v.s.E B v ,                 ",
"              v A I E 2.l.~.[.].Q.T.G.B.[ P c c +.@.>.).%X4X9XwXqX9X4X%XK.>.@.+.c G L  .B.G.T.Q.[.[.v.l.2.E I B F               ",
"          & 3 S E d.f.x.z.z.x.y.6.O...' ] P c +.+.@.u.p.%X4X9X0XqX9X4X%X).>.@.@.+.J P R ] ..o.6.g.k.c.z.x.f.3.E S 3 &           ",
"        X & 3 I <.j.v.'.v.c.t.*.L D z h x c P @.@.@.B.B.%X4X9X8X9X9X4X%XB.w.@.@.+.J c l F F A U ,.t.c.v.v.`.k.3.I 3 $ X         ",
"        X $ 3 Y d.~..X#X}.c.t.%.l a a a j x c P @.;.B.B.E.4X3X8X8X3X4XE.B.B.;.;.c c x l 1 > 3 B $.0.c.v.#X.X`.f.U 3 = X         ",
"        X $ 4 Y g.[.@X@X|.v.t.$.j 1 % % 1 j x L L [ B.B.R.1X3X3X3X3X1XR.B.N.[ L L l j a % % > k $.l.v.|.@X;X`.g.Y 3 & X         ",
"        X $ 3 Y g.[.-X:X@X}.z.2.B , + + % > s z D ) N.C.S.R.<X2X2X2XS.A.N.N.m.Q f 4 > = @ + , N 1.z.|.@X;X-X[.f.Y 3 $ X         ",
"        X & e Y f.~.oX-X+X.Xv.2.I 2 + + + - a r Q ) ..V.A.S.S.S.S.S.S.A.N.N./ Q v 3 - + o % 2 S d.z..X+X-XoX~.s.I v $ X         ",
"        X $ e I 1.j.~.[.[.v.j.<.N , $ + % > 3 F ^ ) m.M.M.Z.Z.Z.M.Z.Z.M.m.m.m.Q F 3 > % + + 2 N :.j.~. X[.~.j.d.I 3 + X         ",
"          $ e S E d.d.g.g.d.<.Y F : = % > 6 B K ] ....m.b.) b.b.b.b.b.M.m.m.m.P S k 6 > % = , F Y <.f.g.g.d.1.E N 3 =           ",
"              F S I Y Y Y I S F 2 = - < k G +.*.-.5.[ ' _ m M b b M m / ;.;.5.>.$.#.x k 2 = = , f S I Y Y U I N F               ",
"                2 3 3 3 e 3 2 : & + - 4 G #.=.q.0.q.-.R V r 7 7 7 8 t z P >.>.q.q.=.#.G 4 = = = : , 3 e 3 3 2 2                 ",
"                O $ $ # $ $ O O O $ < 5 J &.w.u.w.w.=.P k 1 $ O X & > j c =.w.u.u.w.&.J 5 > # O O O $ $ + $ $ &                 ",
"                X X X X X X X X X $ > 5 #.=.u.u.u.u.=.+.5 % o . . o > j +.=.u.u.u.u.=.#.k > $ X X X X X X X X X                 "
};
