/* XPM */
static char *b49442ddcad8410acca2af85032c48aea4yMSvbtbYP1e2bW[] = {
/* columns rows colors chars-per-pixel */
"60 60 143 2 ",
"   c None",
".  c #130E1F",
"X  c #161121",
"o  c #191527",
"O  c #1B1728",
"+  c #1D1A2D",
"@  c #1E1C31",
"#  c #201E33",
"$  c #242236",
"%  c #25243B",
"&  c #29263A",
"*  c #2E2B3E",
"=  c #262741",
"-  c #262841",
";  c #2B2B44",
":  c #2B2C49",
">  c #2E314F",
",  c #33334D",
"<  c #2E3251",
"1  c #313555",
"2  c #393A55",
"3  c #333758",
"4  c #34395B",
"5  c #3A3D5E",
"6  c #373D61",
"7  c #393F64",
"8  c #3F405C",
"9  c #3A4066",
"0  c #3C456C",
"q  c #3E4770",
"w  c #3F4872",
"e  c #42425C",
"r  c #4A495E",
"t  c #444665",
"y  c #464867",
"u  c #42476A",
"i  c #474A6A",
"p  c #4A4C6D",
"a  c #4E516F",
"s  c #414A74",
"d  c #464F79",
"f  c #4F5270",
"g  c #47507A",
"h  c #4C547D",
"j  c #525676",
"k  c #575977",
"l  c #525679",
"z  c #54587A",
"x  c #60627E",
"c  c #4E5681",
"v  c #545C85",
"b  c #5A5F85",
"n  c #565E88",
"m  c #5B6085",
"M  c #5B628C",
"N  c #5F6790",
"B  c #626687",
"V  c #6B6C85",
"C  c #61678C",
"Z  c #64698C",
"A  c #6F7086",
"S  c #707187",
"D  c #606790",
"F  c #636A94",
"G  c #686F96",
"H  c #676E98",
"J  c #686F99",
"K  c #6E7394",
"L  c #6A719B",
"P  c #70779F",
"I  c #74799C",
"U  c #7A7E9C",
"Y  c #747BA1",
"T  c #787EA3",
"R  c #7B81A5",
"E  c #7E84A9",
"W  c #8387A2",
"Q  c #8B8EA7",
"!  c #8287AB",
"~  c #848AAC",
"^  c #8E93B2",
"/  c #8D92B4",
"(  c #8E93B4",
")  c #8E93B5",
"_  c #8E92B3",
"`  c #9095B4",
"'  c #9195B4",
"]  c #9095B5",
"[  c #9096B5",
"{  c #9095B6",
"}  c #9196B6",
"|  c #9096B7",
" . c #9297B6",
".. c #9196B5",
"X. c #9096B8",
"o. c #9297B8",
"O. c #979BB8",
"+. c #989DBA",
"@. c #999DBB",
"#. c #999EBC",
"$. c #999EBD",
"%. c #9A9EBC",
"&. c #9A9FBC",
"*. c #9A9FBE",
"=. c #999EBB",
"-. c #9DA0BB",
";. c #9EA1BD",
":. c #9EA2BD",
">. c #9FA2BD",
",. c #9FA3BD",
"<. c #9DA1BF",
"1. c #9DA2BE",
"2. c #9EA3BF",
"3. c #9FA3BF",
"4. c #9EA3BF",
"5. c #9FA4C0",
"6. c #9FA4C1",
"7. c #9FA4C0",
"8. c #A0A4C0",
"9. c #A0A5C0",
"0. c #A1A5C1",
"q. c #A2A6C1",
"w. c #A1A6C3",
"e. c #A2A6C2",
"r. c #A3A7C2",
"t. c #A3A7C3",
"y. c #A2A6C2",
"u. c #A3A8C2",
"i. c #A3A8C3",
"p. c #A4A8C2",
"a. c #A4A8C3",
"s. c #A5A9C3",
"d. c #A3A8C4",
"f. c #A4A9C4",
"g. c #A5A9C4",
"h. c #A5AAC5",
"j. c #A6AAC4",
"k. c #A6AAC5",
"l. c #A6AAC6",
"z. c #A6ABC6",
"x. c #A7ABC7",
"c. c #A4A8C3",
"v. c #A8ACC7",
/* pixels */
"                                X . X . . . . . . . X . . . . . X . . X . . . . . X X .                                 ",
"                                O O o O O O O O O O O + O O O O O O O O O O o o O o o o                                 ",
"                                $ $ & & & & * * * * * * * * * * * * * * * * * & & & $ $                                 ",
"                              & ; , , 2 e r r y r r r r r r r r r r y r r r r e 2 , , * &                               ",
"                          o # ; 2 t f k x V A A A A A A S S S S S S S S S V V x k a t 2 ; # X                           ",
"                        X + & , t k B K U W Q Q Q Q Q Q Q Q Q Q Q Q Q Q Q W W U K B k t , % + X                         ",
"                        # & : e j Z I ! / O.-.-.>.>.;.;.-.-.-.-.-.-.>.>.9.>.O./ ! U Z j e , & #                         ",
"                      $ ; , 8 a B I ~ } &.6.l.v.v.v.v.v.v.v.v.v.l.v.v.v.v.l.d.&.} ! I B f 8 , - $                       ",
"                  o # ; 3 t j B I ! ) &.6.d.l.l.v.v.v.l.l.l.l.l.l.l.l.l.l.l.d.6.-.| ! I B j t 2 ; # X                   ",
"                X + & , t k Z I ! } &.6.q.q.l.l.p.p.t.t.p.p.p.p.q.l.s.s.l.u.d.q.6.-.^ ~ I Z j t , & @ X                 ",
"                # & : e j Z I ~ ' -.q.u.t.l.t.t.p.q.p.q.t.q.p.q.s.q.q.d.u.u.s.q.6.6.-.) ! U C j 8 , & #                 ",
"              $ - , e a B I ~ } -.3.q.s.s.q.q.p.q.p.q.p.p.p.q.p.q.q.s.q.q.u.u.l.f.f.6.-.) ~ I B a 5 , ; $               ",
"          o @ * 2 t j B I ! } &.3.q.u.u.p.q.t.t.p.t.t.q.q.q.t.p.q.s.q.q.q.l.q.s.u.l.u.3.=.) ! U B j t 2 ; # o           ",
"        X + & , t k Z I ! ' &.>.6.u.u.l.p.t.p.q.q.q.p.p.t.p.t.q.q.q.q.l.q.q.q.s.u.u.u.q.6.-.' ! I Z z t , $ + o         ",
"        # & : 5 j Z I ~ ' %.q.p.s.q.q.u.p.q.t.q.t.p.q.t.p.t.p.q.q.l.q.q.q.s.q.q.u.q.u.u.q.9.&.} ! I Z j e , $ #         ",
"      & ; 2 e j B I ~ o.%.>.p.s.s.l.u.q.t.q.p.p.t.q.p.t.q.q.p.t.q.s.q.l.q.q.q.l.q.u.u.u.l.q.6.&.} ! U B j 8 , ; &       ",
"X O $ ; 2 y j C U ! ) &.-.q.t.p.q.p.q.t.t.p.q.q.t.p.q.t.p.p.q.t.t.p.q.q.t.p.q.t.p.p.q.l.t.l.q.-.-.' ! I B k y 2 ; % o . ",
"X o $ , t l C Y ! ) &.q.q.q.l.l.d.q.q.p.q.p.t.p.t.q.p.t.q.t.q.p.q.p.t.p.t.q.p.t.q.t.q.q.t.p.p.q.3.=.' ! P C l t > $ o X ",
"X o $ , i m L E / +.q.q.l.u.p.q.t.q.t.p.q.t.p.t.p.p.q.q.t.q.t.p.q.t.p.t.p.p.q.q.p.t.p.q.p.q.t.t.u.6.=./ E K m i , $ o X ",
"X o $ , p M Y ~  .-.q.l.s.l.t.q.p.p.t.q.p.t.q.q.q.t.t.p.p.p.t.q.p.t.q.q.q.t.t.p.q.q.p.t.q.p.l.l.j.u.6.X.~ Y M p , $ o X ",
". o $ , a M P ~ o.-.d.l.l.q.q.p.q.t.q.t.p.q.t.p.p.t.t.q.q.q.t.p.q.t.p.p.p.t.t.q.t.p.q.p.q.t.q.t.j.s.-.o.~ Y M p , $ O X ",
". O $ , p m K E ) &.3.l.d.d.q.t.q.p.p.t.p.t.q.p.q.q.p.p.t.p.t.q.p.t.q.t.q.q.p.p.t.q.p.q.q.p.d.d.s.6.-.) E L m p , $ o X ",
"X O $ , t z L R ~  .-.3.d.q.q.u.t.q.p.q.q.q.t.t.t.p.q.t.p.t.p.q.p.q.t.q.t.p.q.t.p.p.q.q.l.d.q.d.6.-.X.~ R G z y > $ o X ",
"X O $ : t h N L E ~ ) +.-.q.u.s.l.q.q.p.t.p.p.q.t.q.p.t.q.q.p.t.t.q.p.p.t.q.p.t.q.t.t.l.p.q.q.-.+.} ~ E P C l 9 > # o X ",
"X o # ; 5 s b C L R ~ / +.6.u.s.l.t.q.p.t.q.q.p.p.q.t.p.q.q.t.p.p.q.t.t.p.q.p.q.q.u.s.d.u.u.6.-.) ~ R L F v s 5 : @ o X ",
"X o @ ; 3 q h m D L R ~ ) &.6.u.q.t.t.p.p.p.t.t.p.t.q.p.t.p.t.q.t.q.p.q.p.t.t.q.l.q.u.d.u.6.$.o.! T L N m h 0 3 - @ o X ",
"X o + - 3 9 s c n N L T ~  .-.6.q.q.t.t.q.t.p.q.q.q.t.t.p.t.p.q.t.p.q.p.q.q.t.p.q.d.q.6.3.&.o.~ T L N n h d 9 1 = @ O X ",
"X o @ % < 9 s g c n N J R ~ ) +.-.q.p.t.t.p.t.q.t.p.p.q.q.q.p.t.q.p.t.t.t.p.p.t.l.q.q.-.=.) ~ R L N m c g s 9 1 = @ o X ",
"X o @ = 3 9 w s c c v N K T ! ' &.6.q.s.t.t.p.p.t.q.q.p.t.t.p.q.t.p.q.q.q.u.q.l.s.q.-.&./ ~ T K N n c c d s 7 1 = @ o X ",
"X o @ - < 9 s s d g c v D L T ! ) &.8.q.q.d.q.t.p.p.t.q.p.q.p.t.q.q.t.p.s.q.d.q.q.q.&.) ~ T L M v c s d s s 9 < = @ o X ",
"o o @ - 1 9 w s s s d c n N L R ~ } &.8.8.q.d.p.l.q.l.q.q.l.l.q.p.p.p.p.t.d.d.6.6.-.} ~ T L N n c s s s s 0 9 1 = @ O X ",
"X o @ - 1 9 w s w w w d h n D L R ~ ] +.6.q.q.s.s.s.t.p.s.t.p.s.p.l.t.s.l.q.q.-.=.} ~ R L N n c g s w w s w 9 1 = @ o X ",
"X o @ - 1 9 w s w s s s g c n N L T ~ / $.6.q.l.l.p.s.p.s.p.p.p.p.p.l.p.l.q.>.+.) ! T L C n h d w w w w d w 7 3 = @ o X ",
"X o @ = 1 7 w s s w s s s g h n N J T ~ ) $.6.q.q.q.8.q.9.9.q.q.8.q.q.q.q.8.&.} ~ T L N n h g s w w d w w w 7 1 = @ O X ",
"X o @ = 1 9 w s s s s w s s d c n N L Y ~ X.@.&.%.%.=.=.=.=.=.=.+.%.&.%.%.+.} ~ T K N n c g s w w w w w w w 9 3 = @ o X ",
"X o @ = 1 9 w s s s w w w s s s c n N J T ~ / ) ' / / / / / / / / / / ] ) ) ~ E L M n c d s s w w w c w w w 9 3 = @ O X ",
"X o @ = 1 9 w s s s w w w w s s d c v N P Y T E ! R E E E E ! R W E E E E T Y L M v c g s s w w w d w d w w 7 1 = @ o X ",
"o o @ = 1 7 w s s s s s w w s s w c c v N P P P Y P I P P Y P P Y Y Y Y Y Y J D m c g s s w w w w w w w w w 7 1 = @ O X ",
"X o @ = 1 9 w s s s s w w s s w w s c c M H J J L L L L L L L L J J J J J J H N v d s w w s s w w w w w w w 7 3 = @ o X ",
"X o @ - 1 9 w s s s s w s s w w w w s c n N H J J J J H H H H H H H J H J J N n v s w w w w w s w w d w d w 7 3 = @ o X ",
"X o @ = 3 9 w w s s s w s w w w w s c c n N H J J H H H H H J J H J J J J H N n c s s w w w w w w w w d w w 9 3 = @ o X ",
"X o @ = 1 6 w w s s w s w s w w w s s c M N H J J J H H H H H J H J J J J J N M v g s w w w s s d w w w w w 6 < = @ o X ",
"X o @ = < 4 7 q w w w s s w w w w w c c M N J J J J J J J J J J J J J L J H N N c g s w w w w s w w w w w 7 6 < = @ o o ",
"X o @ % : < 4 6 0 w w w s s w w w s s c n H H J J J J J J J J J J J J J J J N M c s s w w w w s w w w 9 6 4 < : $ @ o o ",
"      # $ = : < 6 0 w s s s w w w s c c M N J L L J J J J J J J J J J J L H N n v g s w w w w s w w q 6 < : = $ @       ",
"        @ @ % : 4 9 w w s w w w w s s c M N J J J L J J J J J J J J J J J H N N c g s w w s s s w q 7 4 : = @ +         ",
"        o + @ = < 4 7 0 w w s w w s c c M N J J J J J J J J J J J J L J L H N M c d s w w w w w 0 7 4 < = @ + o         ",
"          X @ % : < 3 6 0 w s w w 7 c c n H J J L L J J J J J J J J J L L J N M c d s w w w w 0 6 3 < : % @ o           ",
"              @ $ = : 1 6 0 w w w w s c M N J J L L J J J J J J J J L J L H N M c g s s s s q 6 < : = $ @               ",
"                @ # % : 4 7 q w w s c c M N J L L L J J J J J J J J J L J J N M c d s s w 0 6 3 : = @ @                 ",
"                X + @ = < 3 7 0 w w c c M N J L L L L J L L J L J L L L L J H M c g s w 0 6 6 < = @ + o                 ",
"                  o @ % : < 3 6 9 w d c N H L L L L L J L L L L L L L P L J F M v g w 9 6 3 > : @ @ o                   ",
"                      @ % = : < 6 s d v M H J L L L L J L J L J L J L L L L H M v d 0 6 < : = $ @                       ",
"                        @ @ = : 3 7 s l n N H J H G H H H F G G H G H H J F N n z s 9 3 : % @ +                         ",
"                        X O @ = > 4 t s h v n n b b b b b b b b b b b b n n v c s 0 4 > = @ + o                         ",
"                          o @ % : > 3 5 t i p s p p p p p p p p p p p p p p s 7 6 3 < : % @ o                           ",
"                              @ $ = = : , , 1 , , , , 2 , , , , 1 2 , , , 2 , , ; ; & % #                               ",
"                                @ @ # # # $ $ $ & $ $ $ $ $ & & # $ & $ & # # # # # @ @                                 ",
"                                o o X o o o o o O O O O o o o O o o O O O o o O o O X o                                 ",
"                                X X X o X X X X . . X . X . X X . X X . . X X X X X X X                                 "
};
